<?xml version="1.0" standalone="no"?>
<!DOCTYPE svg PUBLIC "-//W3C//DTD SVG 20010904//EN"
 "http://www.w3.org/TR/2001/REC-SVG-20010904/DTD/svg10.dtd">
<svg version="1.0" xmlns="http://www.w3.org/2000/svg"
 width="512.000000pt" height="512.000000pt" viewBox="0 0 512.000000 512.000000"
 preserveAspectRatio="xMidYMid meet">

<g transform="translate(0.000000,512.000000) scale(0.100000,-0.100000)"
fill="#000000" stroke="none">
<path d="M2515 5106 c-55 -25 -60 -44 -63 -238 l-4 -178 -178 0 -178 0 -31
-31 c-42 -42 -43 -95 -2 -141 l29 -33 181 -3 181 -3 0 -137 0 -138 -839 -733
c-461 -403 -844 -744 -850 -757 -19 -42 -13 -81 17 -114 39 -44 86 -49 135
-16 21 14 40 26 42 26 3 0 5 -168 4 -372 l0 -373 -406 -290 c-223 -159 -414
-301 -424 -314 -18 -23 -19 -50 -19 -607 l0 -584 29 -32 29 -33 2392 0 2392 0
29 33 29 32 0 584 c0 557 -1 584 -19 607 -10 13 -201 155 -424 314 l-406 290
0 373 c-1 204 1 372 4 372 2 0 21 -12 42 -26 49 -33 96 -28 136 16 29 33 35
72 16 114 -6 13 -389 354 -850 757 l-839 733 0 138 0 137 181 3 181 3 29 33
c41 46 40 99 -2 141 l-31 31 -178 0 -178 0 -4 178 c-3 197 -10 220 -70 241
-39 14 -46 13 -83 -3z m748 -1701 l686 -600 -2 -1295 -2 -1295 -337 -3 -337
-2 -3 452 -3 453 -26 77 c-38 111 -92 200 -171 283 -84 89 -169 146 -276 185
-191 70 -407 56 -583 -36 -181 -95 -317 -263 -371 -461 -20 -73 -22 -106 -26
-516 l-4 -437 -316 2 -317 3 -2 1295 -2 1295 687 602 c378 331 694 601 703
600 8 -1 324 -272 702 -602z m-2303 -2500 l0 -695 -320 0 -320 0 0 468 0 468
316 227 c174 125 318 227 320 227 2 0 4 -313 4 -695z m3549 450 l291 -209 0
-468 0 -468 -320 0 -320 0 0 696 0 696 29 -19 c15 -10 159 -112 320 -228z
m-1834 120 c178 -47 332 -210 371 -394 10 -50 14 -162 14 -468 l0 -403 -515 0
-515 0 0 423 c0 462 1 470 61 588 35 70 135 171 203 206 122 63 258 80 381 48z"/>
<path d="M2438 3184 c-139 -33 -293 -154 -352 -275 -101 -208 -65 -448 92
-608 114 -117 223 -163 382 -163 159 0 268 46 382 163 157 160 193 400 92 608
-37 76 -151 189 -231 230 -117 58 -246 74 -365 45z m222 -216 c196 -61 279
-298 164 -475 -59 -92 -154 -143 -264 -143 -110 0 -205 51 -264 143 -83 128
-68 293 37 395 93 90 205 117 327 80z"/>
</g>
</svg>
